ffmpeg started on 2016-12-06 at 07:36:01
Report written to "Output/x264/results/ffmpeg/sintelfast7000k.log"
Command line:
Tools/ffmpeg/ffmpeg -benchmark -y -i Input/y4m/sintel.y4m -c:v libx264 -preset fast -b:v 7000k -an Output/x264/encoded/sintelfast7000k.mkv
ffmpeg version N-82227-gdb23fde Copyright (c) 2000-2016 the FFmpeg developers
  built with gcc 5.4.0 (Ubuntu 5.4.0-6ubuntu1~16.04.2) 20160609
  configuration: --prefix=/home/jaroslav/ffmpeg_build --pkg-config-flags=--static --extra-cflags=-I/home/jaroslav/ffmpeg_build/include --extra-ldflags=-L/home/jaroslav/ffmpeg_build/lib --bindir=/home/jaroslav/bin --enable-gpl --enable-libass --enable-libfdk-aac --enable-libfreetype --enable-libmp3lame --enable-libopus --enable-libtheora --enable-libvorbis --enable-libvpx --enable-libx264 --enable-libx265 --enable-nvenc --enable-libmfx --enable-libxvid --enable-libgsm --enable-libopencore-amrnb --enable-version3 --enable-nonfree
  libavutil      55. 35.100 / 55. 35.100
  libavcodec     57. 66.101 / 57. 66.101
  libavformat    57. 57.100 / 57. 57.100
  libavdevice    57.  2.100 / 57.  2.100
  libavfilter     6. 66.100 /  6. 66.100
  libswscale      4.  3.100 /  4.  3.100
  libswresample   2.  4.100 /  2.  4.100
  libpostproc    54.  2.100 / 54.  2.100
Input #0, yuv4mpegpipe, from 'Input/y4m/sintel.y4m':
  Duration: 00:00:20.83, start: 0.000000, bitrate: 2057307 kb/s
    Stream #0:0: Video: rawvideo (I420 / 0x30323449), yuv420p(progressive), 4096x1744, SAR 1:1 DAR 256:109, 24 fps, 24 tbr, 24 tbn, 24 tbc
[libx264 @ 0x29f3120] using SAR=1/1
[libx264 @ 0x29f3120] using cpu capabilities: MMX2 SSE2Fast SSSE3 SSE4.2 AVX FMA3 AVX2 LZCNT BMI2
[libx264 @ 0x29f3120] profile High, level 5.1
[libx264 @ 0x29f3120] 264 - core 148 - H.264/MPEG-4 AVC codec - Copyleft 2003-2016 - http://www.videolan.org/x264.html - options: cabac=1 ref=2 deblock=1:0:0 analyse=0x3:0x113 me=hex subme=6 psy=1 psy_rd=1.00:0.00 mixed_ref=1 me_range=16 chroma_me=1 trellis=1 8x8dct=1 cqm=0 deadzone=21,11 fast_pskip=1 chroma_qp_offset=-2 threads=6 lookahead_threads=1 sliced_threads=0 nr=0 decimate=1 interlaced=0 bluray_compat=0 constrained_intra=0 bframes=3 b_pyramid=2 b_adapt=1 b_bias=0 direct=1 weightb=1 open_gop=0 weightp=1 keyint=250 keyint_min=24 scenecut=40 intra_refresh=0 rc_lookahead=30 rc=abr mbtree=1 bitrate=7000 ratetol=1.0 qcomp=0.60 qpmin=0 qpmax=69 qpstep=4 ip_ratio=1.40 aq=1:1.00
Output #0, matroska, to 'Output/x264/encoded/sintelfast7000k.mkv':
  Metadata:
    encoder         : Lavf57.57.100
    Stream #0:0: Video: h264 (libx264) (H264 / 0x34363248), yuv420p, 4096x1744 [SAR 1:1 DAR 256:109], q=-1--1, 7000 kb/s, 24 fps, 1k tbn, 24 tbc
    Metadata:
      encoder         : Lavc57.66.101 libx264
    Side data:
      cpb: bitrate max/min/avg: 0/0/7000000 buffer size: 0 vbv_delay: -1
Stream mapping:
  Stream #0:0 -> #0:0 (rawvideo (native) -> h264 (libx264))
Press [q] to stop, [?] for help
frame=    9 fps=0.0 q=0.0 size=       0kB time=00:00:00.00 bitrate=N/A speed=   0x    frame=   18 fps= 17 q=0.0 size=       0kB time=00:00:00.00 bitrate=N/A speed=   0x    frame=   27 fps= 16 q=0.0 size=       0kB time=00:00:00.00 bitrate=N/A speed=   0x    frame=   36 fps= 16 q=0.0 size=       0kB time=00:00:00.00 bitrate=N/A speed=   0x    frame=   37 fps=9.4 q=0.0 size=       0kB time=00:00:00.00 bitrate=N/A speed=   0x    frame=   43 fps=9.0 q=28.0 size=       1kB time=00:00:00.00 bitrate=5872.0kbits/s speed=0.000209x    frame=   44 fps=5.5 q=37.0 size=       1kB time=00:00:00.04 bitrate= 136.6kbits/s speed=0.00537x    frame=   49 fps=5.6 q=46.0 size=       1kB time=00:00:00.25 bitrate=  23.4kbits/s speed=0.0288x    frame=   56 fps=6.0 q=46.0 size=       1kB time=00:00:00.54 bitrate=  10.8kbits/s speed=0.0586x    frame=   61 fps=6.2 q=46.0 size=       1kB time=00:00:00.75 bitrate=   7.8kbits/s speed=0.0768x    frame=   66 fps=6.4 q=46.0 size=       1kB time=00:00:00.95 bitrate=   6.1kbits/s speed=0.0927x    frame=   73 fps=6.7 q=45.0 size=       1kB time=00:00:01.25 bitrate=   4.7kbits/s speed=0.115x    frame=   80 fps=7.0 q=44.0 size=       1kB time=00:00:01.54 bitrate=   3.8kbits/s speed=0.135x    frame=   88 fps=7.4 q=43.0 size=       1kB time=00:00:01.87 bitrate=   3.1kbits/s speed=0.157x    frame=   94 fps=7.5 q=43.0 size=       1kB time=00:00:02.12 bitrate=   2.8kbits/s speed=0.17x    frame=  100 fps=7.7 q=43.0 size=       1kB time=00:00:02.37 bitrate=   2.5kbits/s speed=0.182x    frame=  105 fps=7.7 q=42.0 size=       1kB time=00:00:02.58 bitrate=   2.3kbits/s speed=0.19x    frame=  111 fps=7.8 q=42.0 size=       1kB time=00:00:02.83 bitrate=   2.1kbits/s speed= 0.2x    frame=  115 fps=7.8 q=42.0 size=       1kB time=00:00:03.00 bitrate=   2.0kbits/s speed=0.205x    frame=  122 fps=7.9 q=42.0 size=       1kB time=00:00:03.29 bitrate=   1.8kbits/s speed=0.214x    frame=  129 fps=8.1 q=41.0 size=       1kB time=00:00:03.58 bitrate=   1.6kbits/s speed=0.224x    frame=  136 fps=8.2 q=41.0 size=       1kB time=00:00:03.87 bitrate=   1.5kbits/s speed=0.233x    frame=  143 fps=8.2 q=41.0 size=    3821kB time=00:00:04.16 bitrate=7510.0kbits/s speed=0.24x    frame=  149 fps=8.3 q=41.0 size=    3821kB time=00:00:04.41 bitrate=7085.0kbits/s speed=0.247x    frame=  158 fps=8.6 q=41.0 size=    3821kB time=00:00:04.79 bitrate=6530.7kbits/s speed=0.26x    frame=  162 fps=8.5 q=41.0 size=    3821kB time=00:00:04.95 bitrate=6312.1kbits/s speed=0.261x    frame=  169 fps=8.6 q=40.0 size=    3821kB time=00:00:05.25 bitrate=5961.1kbits/s speed=0.269x    frame=  176 fps=8.7 q=40.0 size=    3821kB time=00:00:05.54 bitrate=5647.1kbits/s speed=0.275x    frame=  183 fps=8.8 q=40.0 size=    3821kB time=00:00:05.83 bitrate=5365.4kbits/s speed=0.281x    frame=  191 fps=9.0 q=40.0 size=    3821kB time=00:00:06.16 bitrate=5074.9kbits/s speed=0.289x    frame=  199 fps=9.1 q=40.0 size=    5712kB time=00:00:06.50 bitrate=7197.5kbits/s speed=0.298x    frame=  203 fps=9.1 q=40.0 size=    5712kB time=00:00:06.66 bitrate=7017.2kbits/s speed=0.298x    frame=  209 fps=9.1 q=40.0 size=    5712kB time=00:00:06.91 bitrate=6763.7kbits/s speed=0.302x    frame=  217 fps=9.2 q=40.0 size=    5712kB time=00:00:07.25 bitrate=6453.0kbits/s speed=0.307x    frame=  224 fps=9.3 q=40.0 size=    6456kB time=00:00:07.54 bitrate=7011.8kbits/s speed=0.312x    frame=  232 fps=9.4 q=39.0 size=    6456kB time=00:00:07.87 bitrate=6715.3kbits/s speed=0.318x    frame=  239 fps=9.5 q=39.0 size=    6456kB time=00:00:08.16 bitrate=6475.2kbits/s speed=0.323x    frame=  244 fps=9.4 q=39.0 size=    6456kB time=00:00:08.37 bitrate=6314.4kbits/s speed=0.324x    frame=  250 fps=9.5 q=39.0 size=    6456kB time=00:00:08.62 bitrate=6131.4kbits/s speed=0.327x    frame=  257 fps=9.6 q=39.0 size=    6456kB time=00:00:08.91 bitrate=5930.7kbits/s speed=0.331x    frame=  263 fps=9.6 q=39.0 size=    6456kB time=00:00:09.16 bitrate=5769.0kbits/s speed=0.334x    frame=  271 fps=9.6 q=39.0 size=    6456kB time=00:00:09.50 bitrate=5566.8kbits/s speed=0.338x    frame=  278 fps=9.7 q=38.0 size=    6456kB time=00:00:09.79 bitrate=5400.8kbits/s speed=0.342x    frame=  284 fps=9.7 q=38.0 size=    6456kB time=00:00:10.04 bitrate=5266.3kbits/s speed=0.344x    frame=  292 fps=9.8 q=38.0 size=    6456kB time=00:00:10.37 bitrate=5097.3kbits/s speed=0.35x    frame=  299 fps=9.9 q=38.0 size=    6456kB time=00:00:10.66 bitrate=4957.8kbits/s speed=0.353x    frame=  302 fps=9.8 q=38.0 size=    6456kB time=00:00:10.79 bitrate=4900.4kbits/s speed=0.349x    frame=  312 fps=9.9 q=38.0 size=    8743kB time=00:00:11.20 bitrate=6390.1kbits/s speed=0.356x    frame=  319 fps=9.9 q=37.0 size=    8743kB time=00:00:11.50 bitrate=6227.8kbits/s speed=0.358x    frame=  325 fps=9.9 q=37.0 size=    8743kB time=00:00:11.75 bitrate=6095.3kbits/s speed=0.36x    frame=  333 fps= 10 q=37.0 size=    8743kB time=00:00:12.08 bitrate=5927.4kbits/s speed=0.364x    frame=  341 fps= 10 q=37.0 size=    8743kB time=00:00:12.41 bitrate=5767.9kbits/s speed=0.368x    frame=  351 fps= 10 q=36.0 size=    8743kB time=00:00:12.83 bitrate=5581.0kbits/s speed=0.375x    frame=  360 fps= 10 q=36.0 size=    8743kB time=00:00:13.20 bitrate=5422.5kbits/s speed=0.38x    frame=  369 fps= 10 q=36.0 size=    8743kB time=00:00:13.58 bitrate=5272.8kbits/s speed=0.385x    frame=  378 fps= 11 q=35.0 size=    8743kB time=00:00:13.95 bitrate=5131.2kbits/s speed=0.388x    frame=  388 fps= 11 q=35.0 size=    8743kB time=00:00:14.37 bitrate=4982.4kbits/s speed=0.394x    frame=  395 fps= 11 q=35.0 size=    8743kB time=00:00:14.66 bitrate=4883.2kbits/s speed=0.395x    frame=  405 fps= 11 q=34.0 size=   10788kB time=00:00:15.08 bitrate=5858.9kbits/s speed= 0.4x    frame=  409 fps= 11 q=34.0 size=   10788kB time=00:00:15.25 bitrate=5794.7kbits/s speed=0.399x    frame=  416 fps= 11 q=34.0 size=   10788kB time=00:00:15.54 bitrate=5685.8kbits/s speed=0.399x    frame=  425 fps= 11 q=34.0 size=   10788kB time=00:00:15.91 bitrate=5551.9kbits/s speed=0.402x    frame=  431 fps= 11 q=34.0 size=   10788kB time=00:00:16.16 bitrate=5466.0kbits/s speed=0.403x    frame=  436 fps= 11 q=34.0 size=   10788kB time=00:00:16.37 bitrate=5396.6kbits/s speed=0.403x    frame=  441 fps= 11 q=34.0 size=   10788kB time=00:00:16.58 bitrate=5328.9kbits/s speed=0.403x    frame=  448 fps= 11 q=34.0 size=   10788kB time=00:00:16.87 bitrate=5236.7kbits/s speed=0.405x    frame=  453 fps= 11 q=34.0 size=   10788kB time=00:00:17.08 bitrate=5173.0kbits/s speed=0.405x    frame=  461 fps= 11 q=34.0 size=   12808kB time=00:00:17.41 bitrate=6024.0kbits/s speed=0.408x    frame=  468 fps= 11 q=34.0 size=   12808kB time=00:00:17.70 bitrate=5925.0kbits/s speed=0.409x    frame=  474 fps= 11 q=34.0 size=   12808kB time=00:00:17.95 bitrate=5842.5kbits/s speed=0.41x    frame=  481 fps= 11 q=34.0 size=   12808kB time=00:00:18.25 bitrate=5749.0kbits/s speed=0.412x    frame=  488 fps= 11 q=34.0 size=   12808kB time=00:00:18.54 bitrate=5658.5kbits/s speed=0.414x    frame=  495 fps= 11 q=34.0 size=   12808kB time=00:00:18.83 bitrate=5571.1kbits/s speed=0.415x    frame=  500 fps= 11 q=34.0 size=   12808kB time=00:00:19.04 bitrate=5509.9kbits/s speed=0.415x    frame=  500 fps= 10 q=-1.0 Lsize=   15451kB time=00:00:20.70 bitrate=6112.1kbits/s speed=0.43x    
video:15446kB audio:0kB subtitle:0kB other streams:0kB global headers:0kB muxing overhead: 0.031245%
bench: utime=156.584s
bench: maxrss=1324036kB
[libx264 @ 0x29f3120] frame I:8     Avg QP:29.17  size:104235
[libx264 @ 0x29f3120] frame P:269   Avg QP:34.49  size: 35967
[libx264 @ 0x29f3120] frame B:223   Avg QP:32.00  size: 23800
[libx264 @ 0x29f3120] consecutive B-frames: 37.0%  8.4%  6.6% 48.0%
[libx264 @ 0x29f3120] mb I  I16..4: 27.8% 69.2%  3.1%
[libx264 @ 0x29f3120] mb P  I16..4: 18.4% 22.8%  0.2%  P16..4: 18.3%  1.6%  0.5%  0.0%  0.0%    skip:38.2%
[libx264 @ 0x29f3120] mb B  I16..4:  6.7%  5.9%  0.2%  B16..8: 15.0%  1.5%  0.0%  direct: 6.6%  skip:64.1%  L0:42.5% L1:53.8% BI: 3.8%
[libx264 @ 0x29f3120] final ratefactor: 31.25
[libx264 @ 0x29f3120] 8x8 transform intra:54.0% inter:91.2%
[libx264 @ 0x29f3120] coded y,uvDC,uvAC intra: 12.0% 19.9% 1.0% inter: 4.3% 4.0% 0.0%
[libx264 @ 0x29f3120] i16 v,h,dc,p: 36% 32%  9% 24%
[libx264 @ 0x29f3120] i8 v,h,dc,ddl,ddr,vr,hd,vl,hu: 21% 15% 51%  2%  2%  2%  3%  2%  2%
[libx264 @ 0x29f3120] i4 v,h,dc,ddl,ddr,vr,hd,vl,hu: 18% 24% 11%  7% 11%  7% 11%  4%  6%
[libx264 @ 0x29f3120] i8c dc,h,v,p: 81%  9%  9%  1%
[libx264 @ 0x29f3120] Weighted P-Frames: Y:0.7% UV:0.0%
[libx264 @ 0x29f3120] ref P L0: 81.7% 18.3%
[libx264 @ 0x29f3120] ref B L0: 87.0% 13.0%
[libx264 @ 0x29f3120] ref B L1: 97.2%  2.8%
[libx264 @ 0x29f3120] kb/s:6073.47
